# xmcd
#
# Track frame offsets:
#	150
#	21717
#	39335
#	56100
#	74327
#	90328
#	110967
#	121126
#	132956
#	149857
#	166432
#	178597
#	199694
#
# Disc length: 2836 seconds
#
# Revision: 1
# Processed by: cddbd v1.5.1PL0 Copyright (c) Steve Scherf et al.
# Submitted via: EasyCDDAExtractor 7.0.4.1
#
DISCID=c70b120d
DTITLE=Chico Cantado - copta do sauipe
DYEAR=2004
DGENRE=brezil
TTITLE0=eu vou te matar de beijo
TTITLE1=desejo de amor
TTITLE2=Quero te levar pro mar na minha jangada
TTITLE3=aguenta coração
TTITLE4=quero dormir meu amor não deixa
TTITLE5=eu vou te pegar na marra
TTITLE6=a tua Galia a galia é tua
TTITLE7=a vizinha da castanha
TTITLE8=prazer te conhecer
TTITLE9=costa do sauipe
TTITLE10=não sei porque você só fica me olhando
TTITLE11=forró do meu fação
TTITLE12=por causa de você eu botei a perder
EXTD=
EXTT0=
EXTT1=
EXTT2=
EXTT3=
EXTT4=
EXTT5=
EXTT6=
EXTT7=
EXTT8=
EXTT9=
EXTT10=
EXTT11=
EXTT12=
PLAYORDER=
